<svg xmlns="http://www.w3.org/2000/svg" viewBox="0 0 1500 1500"><defs><style>.cls-1{font-size:400px;font-family:CircularStd-Black, Circular Std;font-weight:800;}.cls-2,.cls-3{fill:none;stroke:#000;stroke-miterlimit:10;}.cls-2{stroke-width:55px;}.cls-3{stroke-width:50px;}</style></defs><g id="Calque_1" data-name="Calque 1"><text class="cls-1" transform="translate(101.64 1030.82)">VÉL</text><text class="cls-1" transform="translate(81.27 625)">HÉL</text></g><g id="Calque_3" data-name="Calque 3"><circle class="cls-2" cx="984.4" cy="476.13" r="123.5"/><circle class="cls-2" cx="981.51" cy="882.36" r="123.5"/><path d="M959.83,743.42l-1.6,121.24L958,882c-.17,12.56,11.16,24.58,24,24,13.15-.59,23.82-10.54,24-24l1.6-121.24.23-17.34c.16-12.55-11.16-24.57-24-24-13.15.59-23.82,10.55-24,24Z"/><path d="M1197.89,591.28l-76.56,44.48L999.47,706.57,971.71,722.7c-10.85,6.31-15.62,22-8.61,32.84s21.22,15.36,32.84,8.61l76.56-44.49,121.86-70.81,27.75-16.13c10.86-6.31,15.62-22,8.61-32.83s-21.22-15.36-32.83-8.61Z"/><path d="M971.89,496.72,1004,514.28l77.21,42.18,93.91,51.3L1256,651.92c13.11,7.16,26.1,14.59,39.35,21.49l.57.31c11,6,26.66,3.08,32.83-8.61,5.93-11.22,3.16-26.41-8.61-32.83L1288,614.72l-77.21-42.18-93.91-51.3L1036,477.08c-13.11-7.16-26.1-14.59-39.35-21.49l-.57-.31c-11-6-26.66-3.08-32.83,8.61-5.93,11.22-3.16,26.41,8.61,32.83Z"/><line class="cls-3" x1="1304.26" y1="481.52" x2="1306.56" y2="658.09"/><path d="M1130.62,906.79,1242,818.6,1258,806c4.5-3.56,7-11.52,7-17,0-5.89-2.61-12.92-7-17s-10.58-7.32-17-7c-6.77.3-11.7,2.86-17,7l-111.4,88.19-16,12.63c-4.49,3.56-7,11.52-7,17,0,5.88,2.62,12.92,7,17,4.58,4.2,10.58,7.31,17,7,6.77-.31,11.7-2.86,17-7Z"/><line class="cls-3" x1="1247.22" y1="732.54" x2="1249.52" y2="864.41"/></g></svg>